# xmcd
#
# Track frame offsets: 
#        150
#        18377
#        35980
#        53621
#        72541
#        92017
#        109504
#        132548
#        151869
#        167791
#        189267
#        214038
#        234571
#        253704
#        275858
#        297666
#        318885
#        341889
#
# Disc length: 4716 seconds
#
# Revision: 0
# Processed by: cddbd v1.5.2PL0 Copyright (c) Steve Scherf et al.
# Submitted via: ExactAudioCopy v1.0b1
#
DISCID=14126a12
DTITLE=Zouk - Zouk Collection Dansez
DYEAR=2008
DGENRE=Country
TTITLE0=Songe Lon tan
TTITLE1=Ede yo
TTITLE2=Lov' dance
TTITLE3=Jistan
TTITLE4=Elodie pa pati
TTITLE5=M.L.K. Malaka
TTITLE6=Zig zage
TTITLE7=Pa rete ayin
TTITLE8=Se pou vou
TTITLE9=Pati
TTITLE10=Vie an mwen
TTITLE11=Pa lessew alle
TTITLE12=Ou inme
TTITLE13=Se vou se mewn
TTITLE14=An bake a goree
TTITLE15=Satisfaction
TTITLE16=Yeyette
TTITLE17=Zouk attitude
EXTD=
EXTT0=
EXTT1=
EXTT2=
EXTT3=
EXTT4=
EXTT5=
EXTT6=
EXTT7=
EXTT8=
EXTT9=
EXTT10=
EXTT11=
EXTT12=
EXTT13=
EXTT14=
EXTT15=
EXTT16=
EXTT17=
PLAYORDER=
